<?xml version="1.0" encoding="utf-8"?>
<!-- Generator: Adobe Illustrator 18.1.1, SVG Export Plug-In . SVG Version: 6.00 Build 0)  -->
<svg version="1.1" id="Layer_1" xmlns="http://www.w3.org/2000/svg" xmlns:xlink="http://www.w3.org/1999/xlink" x="0px" y="0px"
	 viewBox="0 0 356.3138428 77.5139313" enable-background="new 0 0 356.3138428 77.5139313" xml:space="preserve">
<g>
	<g>
		<polygon fill="#EE3124" points="125.6653519,62.5634804 131.1185455,37.7216797 136.2650452,37.7216797 130.8060455,62.5634804 		
			"/>
		<path fill="#EE3124" d="M134.6907501,62.5634804l4.0507965-18.4179993h4.9492035l-0.7577972,3.4570007
			c1.2012024-1.4140015,2.4160004-2.4217987,3.6308899-3.0078011c1.2129059-0.5839996,2.3789063-0.8807983,3.5-0.8807983
			c1.4531097,0,2.5976105,0.4745979,3.4432983,1.4062004c0.8379059,0.9356003,1.0391083,2.4081993,0.597702,4.4179993
			l-2.8632965,13.0253983h-4.9512024l2.5957031-11.8046989c0.222702-1.0078011,0.2774048-1.6875,0.1679993-2.044899
			c-0.1035004-0.3574028-0.2948914-0.6309013-0.5742035-0.8164024c-0.2812958-0.1856003-0.6151886-0.2792969-1.0077972-0.2792969
			c-0.6875,0-1.4472961,0.2304001-2.2910004,0.6815987c-0.8378906,0.455101-1.8339996,1.3418007-2.9882965,2.6620979
			l-2.5469055,11.6016006H134.6907501z"/>
		<path fill="#EE3124" d="M154.1439514,68.2255783l1.1815948-3.6151962
			c1.8222961,0.9510956,3.6464996,1.4237976,5.4766083,1.4237976c1.7206879,0,3.0917969-0.3593979,4.1190948-1.0820007
			c1.0233917-0.7247009,1.7402039-2.0175972,2.1464996-3.8789978l0.5547028-2.5097008
			c-0.7929993,1.1836014-1.781311,2.142601-2.9609985,2.8847008c-1.183609,0.7442017-2.4726105,1.1152992-3.871109,1.1152992
			c-1.4237976,0-2.593689-0.357399-3.5175018-1.0741997c-0.9179993-0.7168007-1.511795-1.7929993-1.7734985-3.2304993
			c-0.2577972-1.4394989-0.1991882-3.0410004,0.1875-4.8046989c0.6133118-2.767601,1.8125-5.0781021,3.6094055-6.9453011
			c1.8007965-1.8613014,3.9335938-2.794899,6.402298-2.794899c0.6504059,0,1.2422028,0.0722008,1.7559052,0.2030983
			c0.5155945,0.1328011,0.9922028,0.3379021,1.4276886,0.6171989c0.4434052,0.2832031,0.9414063,0.7558022,1.5059052,1.4258003
			l0.9179993-1.8144989h4.433609l-3.0860138,14.0371017c-0.8125,3.7070999-1.7206879,6.2050972-2.7167969,7.4921989
			c-0.9960938,1.2812958-2.3047028,2.25-3.9160004,2.9023972c-1.6093903,0.6562042-3.375,0.9804001-5.2850952,0.9804001
			C158.6087494,69.557579,156.407547,69.1142807,154.1439514,68.2255783 M168.2571411,55.6708832l1.5-6.8223
			c-0.531189-0.8066025-1.0702972-1.3496017-1.6112976-1.6230011c-0.5390015-0.2733994-1.0957031-0.4160004-1.6600952-0.4160004
			c-1.2247009,0-2.3321075,0.5741997-3.3222961,1.7187004c-0.9882965,1.1464996-1.6952972,2.6953011-2.125,4.6503983
			c-0.3691101,1.6738014-0.3594055,2.9863014,0.0195007,3.9473c0.3808899,0.9589996,1.1269989,1.4375,2.2323914,1.4375
			c0.7969055,0,1.6054993-0.2362976,2.4317017-0.7226982C166.5462494,57.3564796,167.3958435,56.6356812,168.2571411,55.6708832"/>
		<path fill="#EE3124" d="M190.7239532,61.9442825c-2.4980011,0.6973-4.800705,1.0468979-6.8945007,1.0468979
			c-1.9922028,0-3.6543121-0.3729973-4.9824066-1.1171989c-1.3339996-0.7440987-2.2245941-1.9062004-2.6817017-3.4902
			c-0.4588928-1.5839996-0.4803925-3.3065987-0.0780945-5.1641006c0.3827972-1.7245979,1.0702972-3.3163986,2.0762024-4.7733994
			c1.003891-1.4608994,2.2518921-2.6133003,3.7422028-3.4628983c1.4921875-0.8418007,3.191391-1.2695007,5.1034851-1.2695007
			c2.3457031,0,4.0527039,0.7557983,5.121109,2.2616997c1.0702972,1.5058975,1.1504059,4.3027,0.253891,8.402298h-11.3105927
			c-0.1582031,1.2442017-0.0995941,2.2285995,0.1954041,2.9434013c0.2910004,0.7187004,0.7713928,1.2871017,1.4432983,1.7089996
			c0.6679993,0.4179001,1.6484985,0.6288986,2.9317017,0.6288986c1.6483917,0,3.5995941-0.3964996,5.8417969-1.1894989
			L190.7239532,61.9442825z M181.5989532,51.5692825h6.5c0.3769989-1.7031021,0.3652954-2.9218025-0.0312042-3.6543007
			c-0.3905945-0.7382011-1.0292969-1.1054001-1.9062958-1.1054001c-0.960907,0-1.835907,0.4043007-2.6307983,1.214798
			C182.7357483,48.8290825,182.095047,50.0126801,181.5989532,51.5692825"/>
		<path fill="#EE3124" d="M193.4056549,62.5634804l4.0487976-18.4179993h4.9452972l-0.7597046,3.472702
			c0.8515015-1.1856003,1.8710022-2.1367035,3.050705-2.8418007c1.1855927-0.7032013,2.410202-1.0625,3.6739044-1.0625
			c0.3006897,0,0.6092987,0.0195007,0.9120941,0.0487976l-0.9804993,4.4746017
			c-0.6406097-0.2518997-1.2637024-0.375-1.8789063-0.375c-0.9882965,0-1.9335938,0.2481003-2.8437958,0.7421989
			c-0.9199066,0.4980011-1.7987976,1.25-2.6445007,2.25l-2.5742035,11.7089996H193.4056549z"/>
		<path fill="#EE3124" d="M205.8392487,61.9931831l0.8047028-3.6641006c2.2342987,1.044899,4.218689,1.5723,5.964798,1.5723
			c0.9315948,0,1.7167969-0.1973,2.3535004-0.5937996c0.6445923-0.3906021,1.0273895-0.8886032,1.1620941-1.4941025
			c0.1172028-0.5273972,0.0039063-0.9687996-0.3242035-1.3280983c-0.343689-0.347702-0.8964996-0.6875-1.6757965-1.0254021
			l-1.5253906-0.6699982c-1.5761108-0.6913986-2.6914063-1.4589005-3.335907-2.3007011
			c-0.6387024-0.830101-0.8202972-1.9101982-0.5254059-3.2421989c0.3554993-1.6035004,1.2656097-2.9239006,2.7402039-3.964901
			c1.4707031-1.0467987,3.4844055-1.5682983,6.0411072-1.5682983c1.4980011,0,3.2285004,0.2285004,5.1991882,0.669899
			l-0.7655945,3.4785004c-1.8339996-0.7011986-3.4024048-1.0527-4.7070923-1.0527
			c-1.023407,0-1.8301086,0.1796989-2.4199066,0.5312004c-0.5917969,0.3535004-0.9492035,0.8085976-1.0664063,1.3731003
			c-0.0976868,0.4335976-0.0175934,0.8182983,0.2480011,1.1562004c0.2422028,0.3339996,0.7657013,0.6640968,1.5489044,0.9902992
			l1.3164063,0.5545998c2.1718903,0.9062996,3.5390015,1.7872009,4.089798,2.6367989
			c0.5312958,0.8652,0.6698914,1.8945007,0.4042969,3.0937004c-0.3457031,1.5567017-1.3085938,2.919899-2.9004059,4.089901
			c-1.593689,1.169899-3.6600952,1.7557983-6.2128906,1.7557983
			C210.0892487,62.9911804,207.9485474,62.6552811,205.8392487,61.9931831"/>
		<path fill="#EE3124" d="M230.6321411,62.9911804c-1.9940948,0-3.6170959-0.3905983-4.8651886-1.169899
			c-1.2617035-0.7714996-2.0937042-1.9160004-2.5098114-3.4315987c-0.4160004-1.5098-0.4178925-3.1895027-0.0135956-5.0372009
			c0.402298-1.8320007,1.1367035-3.5058022,2.2089996-5.0097008c1.0585022-1.5019989,2.4002991-2.6484985,4.0039063-3.4434013
			c1.6053925-0.7831993,3.4081879-1.1854973,5.4081879-1.1854973c2.0078125,0,3.6406097,0.402298,4.8945007,1.1854973
			c1.2480011,0.7949028,2.0801086,1.9414024,2.496109,3.4434013c0.4082031,1.5038986,0.4100952,3.1777,0.0117035,5.0097008
			c-0.4082031,1.8476982-1.148407,3.527401-2.2304993,5.0372009c-1.0761108,1.5155983-2.4199066,2.660099-4.0136108,3.4315987
			C234.4232483,62.6005821,232.630249,62.9911804,230.6321411,62.9911804 M231.3079529,59.9013824
			c1.4042969,0,2.5976868-0.6192017,3.5780945-1.8614006c0.9747009-1.2402,1.6739044-2.8027,2.0917969-4.6875
			c0.410202-1.8710022,0.3964996-3.4295998-0.0332031-4.6738014c-0.441391-1.2460976-1.3573914-1.8690987-2.7596893-1.8690987
			c-1.3946075,0-2.5781097,0.6230011-3.5644989,1.8690987c-0.9844055,1.2442017-1.6758118,2.8027992-2.0918121,4.6738014
			c-0.4100952,1.8848-0.4042969,3.4473,0.0371094,4.6875C229.0013428,59.2821808,229.9134521,59.9013824,231.3079529,59.9013824"/>
		<polygon fill="#EE3124" points="242.3978424,62.5634804 248.220047,36.0575829 253.1732483,36.0575829 247.345047,62.5634804 		
			"/>
		<polygon fill="#EE3124" points="251.3607483,62.5634804 257.1829529,36.0575829 262.1321411,36.0575829 256.3079529,62.5634804 		
			"/>
		<path fill="#EE3124" d="M268.6321411,62.5634804l5.4590149-24.8418007h9.2870789
			c1.8946228,0,3.2891235,0.2402,4.1777954,0.7148018c0.8925171,0.4746017,1.523407,1.1973,1.8808289,2.1641006
			c0.3652954,0.9668007,0.4101868,2.0643997,0.1445923,3.2870979c-0.3184204,1.4531021-1.0429993,2.830101-2.1679993,4.1230011
			c-1.117218,1.2929993-2.5214844,2.2812996-4.2012024,2.9668007l5.5899048,11.5859985h-6.2989197l-3.9472046-10.1348h-2.8398743
			l-2.2285156,10.1348H268.6321411z M276.4681396,48.9989815h1.1914063c2.1268921,0,3.7030945-0.4589996,4.7304993-1.3885994
			c1.023407-0.9239006,1.6640015-1.9766006,1.9199219-3.1464996c0.2206726-1.0157013,0.0643921-1.8223-0.4609985-2.4199028
			c-0.5371094-0.5976982-1.8164368-0.8984985-3.851532-0.8984985h-1.8067017L276.4681396,48.9989815z"/>
		<path fill="#EE3124" d="M299.192749,60.6142807c-0.8652039,0.6855011-1.5977173,1.1777-2.1856079,1.4785004
			c-0.5917969,0.3008003-1.1875,0.5254021-1.7909851,0.6738014c-0.6054077,0.1503983-1.2226257,0.2245979-1.8574219,0.2245979
			c-1.6464844,0-2.8476868-0.5097008-3.6112976-1.5312004c-0.7637024-1.0273972-0.9863892-2.2831993-0.6562805-3.7695999
			c0.3964844-1.8104973,1.468811-3.3260994,3.2109985-4.5410004c1.7440796-1.2108994,4.2733765-1.8163986,7.5917969-1.8163986
			h1.3182983l0.3710938-1.6718979c0.2402039-1.1211014,0.093811-1.875-0.4472961-2.2656021
			c-0.5370789-0.3905983-1.2850952-0.5858994-2.2440796-0.5858994c-1.9023132,0-3.9512329,0.5468979-6.1660156,1.6366997
			l0.7518921-3.4453011c2.4258118-0.8554993,4.7579041-1.2870979,6.9804993-1.2870979
			c1.3612976,0,2.5351868,0.1893997,3.531311,0.5546989c0.9862976,0.3730011,1.7147827,0.9472008,2.1913757,1.7265015
			c0.4668274,0.7773972,0.5332031,1.9375,0.1933289,3.482399l-1.7929077,8.1562996
			c-0.2167969,0.9980011-0.1934204,1.6113014,0.070282,1.8378983c0.265625,0.2207031,0.5527039,0.3281021,0.8574219,0.3281021
			c0.1835938,0,0.4159851-0.0136986,0.695282-0.0508003l-0.5116882,2.7753983
			c-1.117218,0.3125-2.0820007,0.4668007-2.898407,0.4668007c-0.9238892,0-1.6777954-0.1483994-2.2714844-0.4570007
			c-0.5957031-0.3085976-0.9727173-0.9473-1.1153259-1.919899H299.192749z M299.7571411,57.9521828l0.8320923-3.7657013h-1.1738892
			c-1.6152039,0-2.8828125,0.2891006-3.8027039,0.8692017c-0.9198914,0.5839996-1.4725952,1.3046989-1.6659851,2.1717987
			c-0.156311,0.7089996-0.0429993,1.2929993,0.3339844,1.75c0.375,0.4532013,0.8965149,0.6816978,1.5390015,0.6816978
			c0.5782166,0,1.2012024-0.1405983,1.8594055-0.4296989C298.3392334,58.9442825,299.036438,58.5185814,299.7571411,57.9521828"/>
		<path fill="#EE3124" d="M307.5501404,62.5634804l4.0448914-18.4179993h4.9473267l-0.7539063,3.4570007
			c1.2030945-1.4140015,2.4159851-2.4217987,3.632782-3.0078011c1.2129211-0.5839996,2.3770142-0.8807983,3.4961243-0.8807983
			c1.4570007,0,2.5996094,0.4745979,3.4491882,1.4062004c0.8378906,0.9356003,1.039093,2.4081993,0.5917969,4.4179993
			l-2.859375,13.0253983h-4.9472351l2.5898132-11.8046989c0.2246094-1.0078011,0.2792969-1.6875,0.1737976-2.044899
			c-0.1034851-0.3574028-0.3006897-0.6309013-0.5799866-0.8164024c-0.2793274-0.1856003-0.6153259-0.2792969-1.0059204-0.2792969
			c-0.6835938,0-1.4512024,0.2304001-2.289093,0.6815987c-0.8377991,0.455101-1.835907,1.3418007-2.9941101,2.6620979
			l-2.5487976,11.6016006H307.5501404z"/>
		<g>
			<polyline fill="#EE3124" points="29.3138523,14.9384813 49.9437523,14.9384813 39.9212494,62.5751801 19.2903519,62.5751801 
				29.3138523,14.9384813 			"/>
			<path fill="#EE3124" d="M71.2347488,33.8485832l2.1748047-10.3222027
				c5.5800934,0.0547009,10.0194931-0.1757984,9.0106964,4.6035004
				C81.1204529,34.3095818,78.9495468,33.7333832,71.2347488,33.8485832 M45.7493515,62.5751801h19.4413986l3.8622971-18.3729973
				c7.3623047-0.240303,9.8633041,0.5995979,9.0752029,4.3280983l-2.9550018,14.044899h19.3544998l3.2441025-15.4277
				c0.4336014-2.0468979,1.4941101-7.0878983-6.9862976-9.3710976c8.6190948-2.3437996,10.4862976-7.2754002,11.2089005-10.6973019
				c1.6777954-7.9921989-4.8652039-12.1405993-14.9453049-12.1405993H55.7708511L45.7493515,62.5751801z"/>
			<path fill="#EE3124" d="M84.4261475,65.6532822c-4.8485947,2.5468979-10.1464996,4.7012024-15.7891006,6.3086014
				C40.4417496,80.0302811,14.565752,71.7040787,10.843152,53.3622818
				c-2.1377001-10.5371017,3.5049-22.0762005,14.0302992-31.5254002l0.9873009-4.6835995
				C8.223958,28.440382-2.2271478,43.3837814,0.4027522,56.3446808c3.8710001,19.0743027,34.5410004,26.6523972,68.5028915,16.9375
				c7.0283127-2.0116959,13.6387024-4.6151962,19.6870041-7.6288986H84.4261475"/>
			<path fill="#EE3124" d="M123.3968506,21.1649818C119.5257492,2.0966814,88.8602524-5.4834185,54.8909569,4.2314816
				c-7.0283051,2.0096998-13.6416054,4.6112995-19.6865044,7.6268997h4.1620979
				c4.8506012-2.5468998,10.1504059-4.7012,15.7901001-6.3125c28.1982002-8.0683994,54.0722008,0.2617002,57.7988014,18.6093998
				c2.1366959,10.5136986-3.4863052,22.035099-13.9766006,31.472599l-0.9922028,4.6993027
				C115.598053,49.0497818,126.0267487,34.1259804,123.3968506,21.1649818"/>
		</g>
	</g>
	<g>
		<path fill="#EE3124" d="M339.4993286,62.5634804l0.7657166-3.4745979c-0.9160767,1.3008003-1.9375,2.277298-3.0625,2.9277
			c-1.1368103,0.6503983-2.3770142,0.9745979-3.7363892,0.9745979c-2.2265015,0-3.7695007-0.8378983-4.6269226-2.5097008
			c-0.8573914-1.6738968-0.984375-3.8808975-0.3847961-6.6269989c0.6405945-2.892601,1.851593-5.3085976,3.6445313-7.2421989
			c1.7890625-1.9296989,3.9140625-2.8983994,6.3632813-2.8983994c0.664093,0,1.2558899,0.0722008,1.7753906,0.214798
			c0.5155945,0.1387024,1.0020142,0.3594017,1.4453125,0.6485023c0.445282,0.294899,0.9277954,0.7733994,1.4570923,1.4315987
			l2.1875-9.9511986h4.9511108l-5.8242188,26.5058975H339.4993286z M342.4876404,48.9657822
			c-0.5018921-0.785099-1.0272827-1.3125-1.5664063-1.5937004c-0.539093-0.2812996-1.1190796-0.419899-1.7440796-0.419899
			c-1.3067017,0-2.429718,0.6502991-3.3633118,1.9375c-0.9375,1.2910004-1.593811,2.8065987-1.976593,4.5545998
			c-0.3789063,1.7168007-0.3730164,3.0918007,0.0058899,4.1133003c0.3808289,1.0214996,1.1445007,1.5312996,2.2969055,1.5312996
			c0.7265015,0,1.5097046-0.2598,2.3377991-0.7793007c0.8301086-0.5214996,1.6329041-1.2031021,2.4082031-2.0508003
			L342.4876404,48.9657822z"/>
	</g>
	<path fill="#EE3124" d="M349.286438,58.7528801c0-1.8563995,1.3926086-3.2381973,3.1679993-3.2381973
		c1.7051086,0,3.0762024,1.3817978,3.0762024,3.2381973c0,1.7930031-1.3710938,3.1680031-3.0762024,3.1680031
		C350.6790466,61.9208832,349.286438,60.5458832,349.286438,58.7528801 M352.4544373,62.5634804
		c2.0703125,0,3.8594055-1.6133003,3.8594055-3.8106003c0-2.2285004-1.789093-3.8671989-3.8594055-3.8671989
		c-2.1405945,0-3.9306946,1.6386986-3.9306946,3.8671989C348.5237427,60.9501801,350.3138428,62.5634804,352.4544373,62.5634804"/>
	<path fill="#EE3124" d="M351.6321411,58.4433823v-1.3819008h0.9102173c0.4638977,0,0.9589844,0.1269989,0.9589844,0.6786995
		c0,0.6612015-0.5195007,0.7032013-1.0780945,0.7032013H351.6321411z M351.6321411,59.0341797h0.7588196l1.1533813,1.9160004
		h0.7802124l-1.2723999-1.9589996c0.657196-0.0527,1.1493835-0.4277,1.1493835-1.2050972
		c0-0.8896027-0.5205078-1.2617035-1.5644836-1.2617035h-1.6845093v4.4258003h0.6795959V59.0341797z"/>
</g>
</svg>
