<?xml version="1.0" encoding="utf-8"?>
<!-- Generator: Adobe Illustrator 18.1.1, SVG Export Plug-In . SVG Version: 6.00 Build 0)  -->
<svg version="1.1" id="Layer_1" xmlns="http://www.w3.org/2000/svg" xmlns:xlink="http://www.w3.org/1999/xlink" x="0px" y="0px"
	 viewBox="153.1 266 306 260" enable-background="new 153.1 266 306 260" xml:space="preserve">
<g>
	<g>
		<polygon fill="#FFFFFF" points="153.1,516.7 160.4,483.8 167.2,483.8 159.9,516.7 		"/>
		<path fill="#FFFFFF" d="M165.1,516.7l5.4-24.4h6.5l-1.1,4.6c1.6-1.9,3.2-3.2,4.8-4c1.6-0.8,3.2-1.2,4.6-1.2c2,0,3.4,0.7,4.5,1.9
			c1.1,1.2,1.3,3.2,0.8,5.8l-3.8,17.2h-6.6l3.4-15.7c0.3-1.3,0.4-2.3,0.3-2.7c-0.1-0.5-0.4-0.8-0.8-1.1c-0.4-0.3-0.8-0.4-1.3-0.4
			c-0.9,0-1.9,0.3-3.1,0.9c-1.1,0.7-2.4,1.7-4,3.6l-3.1,15.3H165.1z"/>
		<path fill="#FFFFFF" d="M190.9,524.3l1.6-4.8c2.4,1.3,4.8,1.9,7.3,1.9c2.3,0,4.1-0.5,5.4-1.5s2.3-2.7,2.8-5.2l0.8-3.3
			c-1.1,1.6-2.4,2.8-4,3.8c-1.6,0.9-3.3,1.5-5.2,1.5s-3.4-0.5-4.6-1.5c-1.2-0.9-2-2.4-2.4-4.2c-0.4-1.9-0.3-4,0.3-6.4
			c0.8-3.7,2.4-6.8,4.8-9.2c2.4-2.5,5.2-3.7,8.5-3.7c0.9,0,1.6,0.1,2.4,0.3c0.7,0.1,1.3,0.4,1.9,0.8c0.5,0.4,1.2,1.1,2,1.9l1.2-2.4
			h5.8l-4.1,18.6c-1.1,4.9-2.3,8.2-3.6,9.9c-1.3,1.7-3.1,3.1-5.2,3.8c-2.1,0.9-4.5,1.3-7,1.3C196.8,526,193.9,525.3,190.9,524.3
			 M209.6,507.6l2-9c-0.7-1.1-1.5-1.7-2.1-2.1c-0.7-0.4-1.5-0.5-2.3-0.5c-1.6,0-3.1,0.8-4.4,2.3c-1.3,1.5-2.3,3.6-2.8,6.2
			c-0.5,2.3-0.5,4,0,5.2c0.5,1.3,1.5,1.9,2.9,1.9c1.1,0,2.1-0.3,3.2-0.9C207.4,509.8,208.4,508.9,209.6,507.6"/>
		<path fill="#FFFFFF" d="M239.5,515.9c-3.3,0.9-6.4,1.3-9.2,1.3c-2.7,0-4.9-0.5-6.6-1.5c-1.7-0.9-2.9-2.5-3.6-4.6
			c-0.7-2.1-0.7-4.4-0.1-6.9c0.5-2.3,1.5-4.4,2.8-6.4c1.3-2,3.1-3.4,4.9-4.6c2-1.1,4.2-1.7,6.8-1.7c3.1,0,5.4,1.1,6.8,3.1
			c1.5,2,1.6,5.7,0.4,11.1h-15c-0.3,1.6-0.1,2.9,0.3,3.8s1.1,1.7,1.9,2.3c0.9,0.5,2.1,0.8,3.8,0.8c2.1,0,4.8-0.5,7.7-1.6
			L239.5,515.9z M227.3,502.1h8.6c0.5-2.3,0.5-3.8,0-4.9c-0.5-0.9-1.3-1.5-2.5-1.5c-1.3,0-2.4,0.5-3.4,1.6
			C228.9,498.5,227.9,500,227.3,502.1"/>
		<path fill="#FFFFFF" d="M242.9,516.7l5.3-24.4h6.5l-0.8,4.5c1.2-1.6,2.5-2.8,4.1-3.7c1.6-0.9,3.2-1.5,4.9-1.5c0.4,0,0.8,0,1.2,0
			l-1.3,6c-0.8-0.4-1.7-0.5-2.5-0.5c-1.3,0-2.5,0.3-3.7,0.9c-1.2,0.7-2.4,1.7-3.4,3.1l-3.6,15.7H242.9z"/>
		<path fill="#FFFFFF" d="M259.5,515.9l1.1-4.9c2.9,1.3,5.6,2.1,8,2.1c1.2,0,2.3-0.3,3.2-0.8c0.8-0.5,1.3-1.2,1.6-2
			c0.1-0.7,0-1.3-0.4-1.7c-0.4-0.4-1.2-0.9-2.3-1.3l-2-0.9c-2.1-0.9-3.6-2-4.4-3.1c-0.8-1.1-1.1-2.5-0.7-4.2
			c0.5-2.1,1.7-3.8,3.6-5.3c2-1.3,4.6-2.1,8-2.1c2,0,4.2,0.3,6.9,0.9l-1.1,4.6c-2.4-0.9-4.5-1.5-6.2-1.5c-1.3,0-2.4,0.3-3.2,0.7
			c-0.8,0.5-1.2,1.1-1.5,1.9c-0.1,0.5,0,1.1,0.3,1.6c0.3,0.4,1.1,0.9,2,1.3l1.7,0.8c2.9,1.2,4.6,2.4,5.4,3.4
			c0.7,1.2,0.9,2.5,0.5,4.1c-0.4,2.1-1.7,3.8-3.8,5.4c-2.1,1.6-4.9,2.4-8.2,2.4C265.1,517.2,262.3,516.8,259.5,515.9"/>
		<path fill="#FFFFFF" d="M292.4,517.2c-2.7,0-4.8-0.5-6.5-1.6c-1.7-1.1-2.8-2.5-3.3-4.5c-0.5-2-0.5-4.2,0-6.6
			c0.5-2.4,1.5-4.6,2.9-6.6s3.2-3.4,5.3-4.5c2.1-1.1,4.5-1.6,7.2-1.6s4.8,0.5,6.5,1.6c1.6,1.1,2.8,2.5,3.3,4.5c0.5,2,0.5,4.2,0,6.6
			c-0.5,2.4-1.5,4.6-2.9,6.6c-1.5,2-3.2,3.6-5.3,4.5C297.4,516.7,295.1,517.2,292.4,517.2 M293.2,513.1c1.9,0,3.4-0.8,4.8-2.5
			c1.3-1.6,2.3-3.7,2.8-6.2c0.5-2.5,0.5-4.5,0-6.2c-0.5-1.6-1.9-2.5-3.7-2.5c-1.9,0-3.4,0.8-4.8,2.5c-1.3,1.6-2.3,3.7-2.8,6.2
			c-0.5,2.5-0.5,4.5,0,6.2C290.1,512.3,291.3,513.1,293.2,513.1"/>
		<polygon fill="#FFFFFF" points="307.9,516.7 315.7,481.6 322.2,481.6 314.6,516.7 		"/>
		<polygon fill="#FFFFFF" points="319.9,516.7 327.6,481.6 334.2,481.6 326.4,516.7 		"/>
		<path fill="#FFFFFF" d="M342.8,516.7l7.3-32.9h12.3c2.5,0,4.4,0.3,5.6,0.9s2,1.6,2.5,2.9c0.5,1.3,0.5,2.8,0.1,4.4
			c-0.4,2-1.3,3.7-2.9,5.4c-1.5,1.7-3.3,3.1-5.6,4l7.4,15.4h-8.4l-5.2-13.4h-3.7l-2.9,13.4h-6.6V516.7z M353.2,498.7h1.6
			c2.8,0,4.9-0.7,6.2-1.9c1.3-1.2,2.3-2.7,2.5-4.1c0.3-1.3,0.1-2.4-0.7-3.2c-0.7-0.8-2.4-1.2-5.2-1.2h-2.4L353.2,498.7z"/>
		<path fill="#FFFFFF" d="M383.3,514.1c-1.2,0.9-2.1,1.6-2.9,2c-0.8,0.4-1.6,0.7-2.4,0.9c-0.8,0.3-1.6,0.3-2.5,0.3
			c-2.1,0-3.7-0.7-4.8-2c-1.1-1.3-1.3-3.1-0.9-5c0.5-2.4,2-4.4,4.2-6c2.3-1.6,5.7-2.4,10.1-2.4h1.7l0.5-2.3c0.3-1.5,0.1-2.5-0.5-3.1
			c-0.7-0.5-1.7-0.8-2.9-0.8c-2.5,0-5.3,0.7-8.2,2.1l1.1-4.5c3.2-1.2,6.4-1.7,9.3-1.7c1.9,0,3.3,0.3,4.6,0.8
			c1.3,0.5,2.3,1.2,2.9,2.3c0.7,1.1,0.7,2.5,0.3,4.6l-2.4,10.9c-0.3,1.3-0.3,2.1,0.1,2.4c0.4,0.3,0.8,0.4,1.2,0.4
			c0.3,0,0.5,0,0.9-0.1l-0.8,3.8c-1.5,0.4-2.8,0.7-3.8,0.7c-1.2,0-2.3-0.1-3.1-0.7c-0.8-0.4-1.3-1.2-1.5-2.5h-0.3V514.1z
			 M384.1,510.6l1.1-5h-1.6c-2.1,0-3.8,0.4-5,1.2c-1.2,0.8-2,1.7-2.3,2.9c-0.3,0.9,0,1.7,0.4,2.4c0.5,0.7,1.2,0.9,2,0.9
			s1.6-0.1,2.5-0.5C382.2,511.9,383.1,511.3,384.1,510.6"/>
		<path fill="#FFFFFF" d="M394.4,516.7l5.3-24.4h6.5l-1.1,4.6c1.6-1.9,3.2-3.2,4.8-4c1.6-0.8,3.2-1.2,4.6-1.2c2,0,3.4,0.7,4.5,1.9
			c1.1,1.2,1.3,3.2,0.8,5.8l-3.8,17.2h-6.5l3.4-15.7c0.3-1.3,0.4-2.3,0.3-2.7c-0.1-0.5-0.4-0.8-0.8-1.1c-0.4-0.3-0.8-0.4-1.3-0.4
			c-0.9,0-2,0.3-3.1,0.9c-1.1,0.7-2.4,1.7-4,3.6l-3.3,15.4h-6.4V516.7z"/>
		<g>
			<polyline fill="#FFFFFF" points="233.1,301.2 281.7,301.2 258.1,413.1 209.5,413.1 233.1,301.2 			"/>
			<path fill="#FFFFFF" d="M331.7,345.6l5.2-24.3c13.1,0.1,23.5-0.4,21.2,10.9C354.9,346.7,349.8,345.3,331.7,345.6 M271.7,413.1
				h45.6l9-43.2c17.4-0.5,23.2,1.5,21.4,10.2l-6.9,33h45.5l7.7-36.2c1.1-4.8,3.4-16.7-16.4-22c20.3-5.6,24.7-17.1,26.4-25.2
				c4-18.8-11.4-28.5-35.1-28.5h-73.5L271.7,413.1z"/>
			<path fill="#FFFFFF" d="M362.7,420.3c-11.4,6-23.9,11-37.1,14.9c-66.3,19-127.1-0.7-135.8-43.6c-5-24.8,8.2-51.9,33-74.1l2.4-11
				c-41.6,26.5-66.2,61.7-60,92.1c9.2,44.8,81.2,62.6,161,39.8c16.6-4.8,32.1-10.9,46.3-17.9H362.7"/>
			<path fill="#FFFFFF" d="M454.2,315.8c-9.2-44.8-81.2-62.6-161-39.8c-16.4,4.8-32,10.9-46.2,17.9h9.8c11.4-6,23.9-11,37.1-14.9
				c66.3-19,127.1,0.7,135.8,43.8c5,24.7-8.2,51.7-32.9,74l-2.4,11C435.9,381.3,460.5,346.3,454.2,315.8"/>
		</g>
	</g>
	<g>
		<path fill="#FFFFFF" d="M436.7,516.7l1.1-4.6c-1.2,1.7-2.5,3.1-4.1,3.8c-1.5,0.9-3.2,1.3-4.9,1.3c-2.9,0-5-1.1-6.1-3.3
			c-1.2-2.3-1.3-5.2-0.5-8.8c0.8-3.8,2.5-7,4.8-9.6c2.4-2.5,5.2-3.8,8.5-3.8c0.9,0,1.7,0.1,2.4,0.3c0.7,0.1,1.3,0.5,1.9,0.8
			c0.5,0.4,1.2,1.1,2,1.9l2.9-13.3h6.6l-7.7,35.1h-6.8V516.7z M440.7,498.7c-0.7-1.1-1.3-1.7-2.1-2.1c-0.7-0.4-1.5-0.5-2.3-0.5
			c-1.7,0-3.2,0.9-4.5,2.5c-1.2,1.7-2.1,3.7-2.7,6.1c-0.5,2.3-0.5,4.1,0,5.4c0.5,1.3,1.5,2,3.1,2c0.9,0,2-0.4,3.1-1.1
			c1.1-0.7,2.1-1.6,3.2-2.8L440.7,498.7z"/>
	</g>
	<path fill="#FFFFFF" d="M449.7,511.7c0-2.5,1.9-4.2,4.2-4.2c2.3,0,4.1,1.9,4.1,4.2c0,2.4-1.9,4.2-4.1,4.2
		C451.6,515.9,449.7,514.1,449.7,511.7 M454,516.7c2.8,0,5.2-2.1,5.2-5s-2.4-5.2-5.2-5.2s-5.2,2.1-5.2,5.2
		C448.8,514.6,451,516.7,454,516.7"/>
	<path fill="#FFFFFF" d="M452.9,511.3v-1.9h1.2c0.7,0,1.3,0.1,1.3,0.9c0,0.9-0.7,0.9-1.5,0.9H452.9z M452.9,512.1h1.1l1.6,2.5h1.1
		l-1.7-2.7c0.9-0.1,1.5-0.5,1.5-1.6c0-1.2-0.7-1.7-2.1-1.7H452v5.8h0.9V512.1z"/>
</g>
</svg>
