<?xml version="1.0" encoding="utf-8"?>
<!-- Generator: Adobe Illustrator 18.1.1, SVG Export Plug-In . SVG Version: 6.00 Build 0)  -->
<!DOCTYPE svg PUBLIC "-//W3C//DTD SVG 1.1//EN" "http://www.w3.org/Graphics/SVG/1.1/DTD/svg11.dtd">
<svg version="1.1" id="Layer_1" xmlns="http://www.w3.org/2000/svg" xmlns:xlink="http://www.w3.org/1999/xlink" x="0px" y="0px"
	 viewBox="0 0 230.6 196" enable-background="new 0 0 230.6 196" xml:space="preserve">
<g>
	<g>
		<polygon fill="#FFFFFF" points="0,189 5.5,164.2 10.6,164.2 5.1,189 		"/>
		<path fill="#FFFFFF" d="M9,189l4.1-18.4H18l-0.8,3.5c1.2-1.4,2.4-2.4,3.6-3c1.2-0.6,2.4-0.9,3.5-0.9c1.5,0,2.6,0.5,3.4,1.4
			c0.8,0.9,1,2.4,0.6,4.4l-2.9,13h-5l2.6-11.8c0.2-1,0.3-1.7,0.2-2c-0.1-0.4-0.3-0.6-0.6-0.8c-0.3-0.2-0.6-0.3-1-0.3
			c-0.7,0-1.4,0.2-2.3,0.7c-0.8,0.5-1.8,1.3-3,2.7L14,189H9z"/>
		<path fill="#FFFFFF" d="M28.5,194.7l1.2-3.6c1.8,1,3.6,1.4,5.5,1.4c1.7,0,3.1-0.4,4.1-1.1c1-0.7,1.7-2,2.1-3.9L42,185
			c-0.8,1.2-1.8,2.1-3,2.9c-1.2,0.7-2.5,1.1-3.9,1.1c-1.4,0-2.6-0.4-3.5-1.1c-0.9-0.7-1.5-1.8-1.8-3.2c-0.3-1.4-0.2-3,0.2-4.8
			c0.6-2.8,1.8-5.1,3.6-6.9c1.8-1.9,3.9-2.8,6.4-2.8c0.7,0,1.2,0.1,1.8,0.2c0.5,0.1,1,0.3,1.4,0.6c0.4,0.3,0.9,0.8,1.5,1.4l0.9-1.8
			h4.4l-3.1,14c-0.8,3.7-1.7,6.2-2.7,7.5c-1,1.3-2.3,2.3-3.9,2.9c-1.6,0.7-3.4,1-5.3,1C32.9,196,30.7,195.5,28.5,194.7 M42.6,182.1
			l1.5-6.8c-0.5-0.8-1.1-1.3-1.6-1.6c-0.5-0.3-1.1-0.4-1.7-0.4c-1.2,0-2.3,0.6-3.3,1.7c-1,1.1-1.7,2.7-2.1,4.7c-0.4,1.7-0.4,3,0,3.9
			c0.4,1,1.1,1.4,2.2,1.4c0.8,0,1.6-0.2,2.4-0.7C40.9,183.8,41.7,183.1,42.6,182.1"/>
		<path fill="#FFFFFF" d="M65.1,188.4c-2.5,0.7-4.8,1-6.9,1c-2,0-3.7-0.4-5-1.1c-1.3-0.7-2.2-1.9-2.7-3.5c-0.5-1.6-0.5-3.3-0.1-5.2
			c0.4-1.7,1.1-3.3,2.1-4.8c1-1.5,2.3-2.6,3.7-3.5c1.5-0.8,3.2-1.3,5.1-1.3c2.3,0,4.1,0.8,5.1,2.3c1.1,1.5,1.2,4.3,0.3,8.4H55.4
			c-0.2,1.2-0.1,2.2,0.2,2.9c0.3,0.7,0.8,1.3,1.4,1.7c0.7,0.4,1.6,0.6,2.9,0.6c1.6,0,3.6-0.4,5.8-1.2L65.1,188.4z M55.9,178h6.5
			c0.4-1.7,0.4-2.9,0-3.7c-0.4-0.7-1-1.1-1.9-1.1c-1,0-1.8,0.4-2.6,1.2C57.1,175.3,56.4,176.4,55.9,178"/>
		<path fill="#FFFFFF" d="M67.7,189l4-18.4h4.9L76,174c0.9-1.2,1.9-2.1,3.1-2.8c1.2-0.7,2.4-1.1,3.7-1.1c0.3,0,0.6,0,0.9,0l-1,4.5
			c-0.6-0.3-1.3-0.4-1.9-0.4c-1,0-1.9,0.2-2.8,0.7c-0.9,0.5-1.8,1.3-2.6,2.3L72.7,189H67.7z"/>
		<path fill="#FFFFFF" d="M80.2,188.4l0.8-3.7c2.2,1,4.2,1.6,6,1.6c0.9,0,1.7-0.2,2.4-0.6c0.6-0.4,1-0.9,1.2-1.5
			c0.1-0.5,0-1-0.3-1.3c-0.3-0.3-0.9-0.7-1.7-1l-1.5-0.7c-1.6-0.7-2.7-1.5-3.3-2.3c-0.6-0.8-0.8-1.9-0.5-3.2c0.4-1.6,1.3-2.9,2.7-4
			c1.5-1,3.5-1.6,6-1.6c1.5,0,3.2,0.2,5.2,0.7l-0.8,3.5c-1.8-0.7-3.4-1.1-4.7-1.1c-1,0-1.8,0.2-2.4,0.5c-0.6,0.4-0.9,0.8-1.1,1.4
			c-0.1,0.4,0,0.8,0.2,1.2c0.2,0.3,0.8,0.7,1.5,1l1.3,0.6c2.2,0.9,3.5,1.8,4.1,2.6c0.5,0.9,0.7,1.9,0.4,3.1
			c-0.3,1.6-1.3,2.9-2.9,4.1c-1.6,1.2-3.7,1.8-6.2,1.8C84.4,189.4,82.3,189.1,80.2,188.4"/>
		<path fill="#FFFFFF" d="M105,189.4c-2,0-3.6-0.4-4.9-1.2c-1.3-0.8-2.1-1.9-2.5-3.4c-0.4-1.5-0.4-3.2,0-5c0.4-1.8,1.1-3.5,2.2-5
			c1.1-1.5,2.4-2.6,4-3.4c1.6-0.8,3.4-1.2,5.4-1.2c2,0,3.6,0.4,4.9,1.2c1.2,0.8,2.1,1.9,2.5,3.4c0.4,1.5,0.4,3.2,0,5
			c-0.4,1.8-1.1,3.5-2.2,5c-1.1,1.5-2.4,2.7-4,3.4C108.8,189,107,189.4,105,189.4 M105.6,186.3c1.4,0,2.6-0.6,3.6-1.9
			c1-1.2,1.7-2.8,2.1-4.7c0.4-1.9,0.4-3.4,0-4.7c-0.4-1.2-1.4-1.9-2.8-1.9c-1.4,0-2.6,0.6-3.6,1.9c-1,1.2-1.7,2.8-2.1,4.7
			c-0.4,1.9-0.4,3.4,0,4.7C103.3,185.7,104.2,186.3,105.6,186.3"/>
		<polygon fill="#FFFFFF" points="116.7,189 122.6,162.5 127.5,162.5 121.7,189 		"/>
		<polygon fill="#FFFFFF" points="125.7,189 131.5,162.5 136.5,162.5 130.6,189 		"/>
		<path fill="#FFFFFF" d="M143,189l5.5-24.8h9.3c1.9,0,3.3,0.2,4.2,0.7c0.9,0.5,1.5,1.2,1.9,2.2c0.4,1,0.4,2.1,0.1,3.3
			c-0.3,1.5-1,2.8-2.2,4.1c-1.1,1.3-2.5,2.3-4.2,3l5.6,11.6h-6.3l-3.9-10.1h-2.8l-2.2,10.1H143z M150.8,175.4h1.2
			c2.1,0,3.7-0.5,4.7-1.4c1-0.9,1.7-2,1.9-3.1c0.2-1,0.1-1.8-0.5-2.4c-0.5-0.6-1.8-0.9-3.9-0.9h-1.8L150.8,175.4z"/>
		<path fill="#FFFFFF" d="M173.5,187c-0.9,0.7-1.6,1.2-2.2,1.5c-0.6,0.3-1.2,0.5-1.8,0.7c-0.6,0.2-1.2,0.2-1.9,0.2
			c-1.6,0-2.8-0.5-3.6-1.5c-0.8-1-1-2.3-0.7-3.8c0.4-1.8,1.5-3.3,3.2-4.5c1.7-1.2,4.3-1.8,7.6-1.8h1.3l0.4-1.7
			c0.2-1.1,0.1-1.9-0.4-2.3c-0.5-0.4-1.3-0.6-2.2-0.6c-1.9,0-4,0.5-6.2,1.6l0.8-3.4c2.4-0.9,4.8-1.3,7-1.3c1.4,0,2.5,0.2,3.5,0.6
			c1,0.4,1.7,0.9,2.2,1.7c0.5,0.8,0.5,1.9,0.2,3.5l-1.8,8.2c-0.2,1-0.2,1.6,0.1,1.8c0.3,0.2,0.6,0.3,0.9,0.3c0.2,0,0.4,0,0.7-0.1
			L180,189c-1.1,0.3-2.1,0.5-2.9,0.5c-0.9,0-1.7-0.1-2.3-0.5c-0.6-0.3-1-0.9-1.1-1.9H173.5z M174.1,184.4l0.8-3.8h-1.2
			c-1.6,0-2.9,0.3-3.8,0.9c-0.9,0.6-1.5,1.3-1.7,2.2c-0.2,0.7,0,1.3,0.3,1.8c0.4,0.5,0.9,0.7,1.5,0.7c0.6,0,1.2-0.1,1.9-0.4
			C172.7,185.4,173.4,184.9,174.1,184.4"/>
		<path fill="#FFFFFF" d="M181.9,189l4-18.4h4.9l-0.8,3.5c1.2-1.4,2.4-2.4,3.6-3c1.2-0.6,2.4-0.9,3.5-0.9c1.5,0,2.6,0.5,3.4,1.4
			c0.8,0.9,1,2.4,0.6,4.4l-2.9,13h-4.9l2.6-11.8c0.2-1,0.3-1.7,0.2-2c-0.1-0.4-0.3-0.6-0.6-0.8c-0.3-0.2-0.6-0.3-1-0.3
			c-0.7,0-1.5,0.2-2.3,0.7c-0.8,0.5-1.8,1.3-3,2.7l-2.5,11.6H181.9z"/>
		<g>
			<polyline fill="#FFFFFF" points="60.3,26.5 96.9,26.5 79.1,110.9 42.5,110.9 60.3,26.5 			"/>
			<path fill="#FFFFFF" d="M134.6,60l3.9-18.3c9.9,0.1,17.7-0.3,16,8.2C152.1,60.8,148.3,59.8,134.6,60 M89.4,110.9h34.4l6.8-32.6
				c13.1-0.4,17.5,1.1,16.1,7.7l-5.2,24.9h34.3l5.8-27.3c0.8-3.6,2.6-12.6-12.4-16.6c15.3-4.2,18.6-12.9,19.9-19
				c3-14.2-8.6-21.5-26.5-21.5h-55.4L89.4,110.9z"/>
			<path fill="#FFFFFF" d="M158,116.3c-8.6,4.5-18,8.3-28,11.2c-50,14.3-95.8-0.5-102.4-32.9c-3.8-18.7,6.2-39.1,24.9-55.9l1.8-8.3
				C22.9,50.4,4.4,76.9,9.1,99.8c6.9,33.8,61.2,47.2,121.4,30c12.5-3.6,24.2-8.2,34.9-13.5H158"/>
			<path fill="#FFFFFF" d="M227,37.5c-6.9-33.8-61.2-47.2-121.4-30C93.2,11.1,81.5,15.7,70.8,21h7.4c8.6-4.5,18-8.3,28-11.2
				c50-14.3,95.8,0.5,102.4,33c3.8,18.6-6.2,39-24.8,55.8l-1.8,8.3C213.2,86.9,231.7,60.5,227,37.5"/>
		</g>
	</g>
	<g>
		<path fill="#FFFFFF" d="M213.8,189l0.8-3.5c-0.9,1.3-1.9,2.3-3.1,2.9c-1.1,0.7-2.4,1-3.7,1c-2.2,0-3.8-0.8-4.6-2.5
			c-0.9-1.7-1-3.9-0.4-6.6c0.6-2.9,1.9-5.3,3.6-7.2c1.8-1.9,3.9-2.9,6.4-2.9c0.7,0,1.3,0.1,1.8,0.2c0.5,0.1,1,0.4,1.4,0.6
			c0.4,0.3,0.9,0.8,1.5,1.4l2.2-10h5l-5.8,26.5H213.8z M216.8,175.4c-0.5-0.8-1-1.3-1.6-1.6c-0.5-0.3-1.1-0.4-1.7-0.4
			c-1.3,0-2.4,0.7-3.4,1.9c-0.9,1.3-1.6,2.8-2,4.6c-0.4,1.7-0.4,3.1,0,4.1c0.4,1,1.1,1.5,2.3,1.5c0.7,0,1.5-0.3,2.3-0.8
			c0.8-0.5,1.6-1.2,2.4-2.1L216.8,175.4z"/>
	</g>
	<path fill="#FFFFFF" d="M223.6,185.2c0-1.9,1.4-3.2,3.2-3.2c1.7,0,3.1,1.4,3.1,3.2c0,1.8-1.4,3.2-3.1,3.2
		C225,188.4,223.6,187,223.6,185.2 M226.8,189c2.1,0,3.9-1.6,3.9-3.8c0-2.2-1.8-3.9-3.9-3.9c-2.1,0-3.9,1.6-3.9,3.9
		C222.9,187.4,224.6,189,226.8,189"/>
	<path fill="#FFFFFF" d="M226,184.9v-1.4h0.9c0.5,0,1,0.1,1,0.7c0,0.7-0.5,0.7-1.1,0.7H226z M226,185.5h0.8l1.2,1.9h0.8l-1.3-2
		c0.7-0.1,1.1-0.4,1.1-1.2c0-0.9-0.5-1.3-1.6-1.3h-1.7v4.4h0.7V185.5z"/>
</g>
</svg>
